<?xml version="1.0" encoding="utf-8"?>
<!-- Generator: Adobe Illustrator 16.0.0, SVG Export Plug-In . SVG Version: 6.00 Build 0)  -->
<!DOCTYPE svg PUBLIC "-//W3C//DTD SVG 1.1//EN" "http://www.w3.org/Graphics/SVG/1.1/DTD/svg11.dtd">
<svg version="1.1" id="Layer_1" xmlns="http://www.w3.org/2000/svg" xmlns:xlink="http://www.w3.org/1999/xlink" x="0px" y="0px"
	 width="169.5px" height="169.5px" viewBox="0 0 169.5 169.5" enable-background="new 0 0 169.5 169.5" xml:space="preserve">
<path d="M151.094,98.407c0.001-0.004,0.001-0.007,0.003-0.011l2.109-5.09c0.002-0.006,0.004-0.012,0.007-0.018l3.537-8.539
	l-3.537-8.539c-0.002-0.006-0.005-0.011-0.007-0.018l-2.109-5.09c-0.001-0.004-0.001-0.007-0.003-0.011
	c-0.001-0.003-0.004-0.006-0.005-0.01l-1.03-2.486c-0.002-0.006-0.003-0.012-0.005-0.019c-0.002-0.006-0.007-0.011-0.009-0.017
	l-1.299-3.137c-0.001-0.003-0.002-0.006-0.004-0.009l-1.84-4.443c-0.005-0.012-0.01-0.024-0.014-0.035l-1.295-3.125
	c-0.002-0.005-0.002-0.011-0.004-0.015s-0.005-0.009-0.008-0.014l-3.146-7.595c-0.004-0.01-0.008-0.02-0.012-0.029l-1.459-3.523
	c-0.005-0.014-0.011-0.026-0.017-0.04L136.764,36.5c-0.003-0.007-0.004-0.015-0.007-0.022c-0.003-0.008-0.008-0.013-0.011-0.021
	l-1.085-2.618l-2.618-1.085c-0.008-0.003-0.013-0.008-0.021-0.011c-0.007-0.003-0.014-0.004-0.022-0.007l-10.107-4.187
	c-0.006-0.002-0.012-0.004-0.018-0.007l-3.542-1.467c-0.004-0.002-0.009-0.004-0.014-0.006l-7.606-3.151
	c-0.003-0.001-0.006-0.004-0.01-0.005c-0.004-0.001-0.008-0.001-0.012-0.003l-3.123-1.293c-0.016-0.007-0.031-0.013-0.046-0.02
	l-4.433-1.836c-0.007-0.003-0.014-0.005-0.021-0.009l-3.144-1.302c-0.001,0-0.003-0.001-0.004-0.002
	c-0.001-0.001-0.003-0.001-0.005-0.002l-2.499-1.035c-0.004-0.001-0.006-0.004-0.01-0.005c-0.004-0.001-0.007-0.001-0.011-0.003
	l-5.098-2.112c0,0,0,0,0,0L84.75,12.75l-8.539,3.537c-0.007,0.003-0.015,0.006-0.021,0.009l-5.086,2.106
	c-0.004,0.001-0.007,0.001-0.011,0.003c-0.003,0.001-0.006,0.004-0.01,0.005l-2.499,1.035c-0.002,0.001-0.004,0.001-0.005,0.002
	c-0.001,0-0.003,0.001-0.004,0.002l-3.14,1.301c-0.009,0.004-0.018,0.008-0.026,0.011l-4.427,1.834
	c-0.018,0.007-0.035,0.014-0.051,0.021l-3.121,1.293c-0.004,0.002-0.008,0.002-0.012,0.003c-0.003,0.001-0.007,0.004-0.01,0.005
	l-7.608,3.151c-0.003,0.001-0.006,0.002-0.009,0.004l-3.548,1.469c-0.003,0.001-0.006,0.003-0.009,0.004L36.5,32.736
	c-0.007,0.003-0.015,0.004-0.021,0.007c-0.008,0.003-0.013,0.008-0.021,0.011l-2.618,1.085l-1.084,2.618
	c-0.004,0.007-0.009,0.013-0.012,0.021c-0.003,0.007-0.004,0.015-0.007,0.022l-4.182,10.098c-0.006,0.013-0.012,0.026-0.017,0.04
	l-1.459,3.523c-0.004,0.009-0.008,0.019-0.012,0.029l-3.146,7.595c-0.002,0.004-0.005,0.009-0.008,0.014s-0.002,0.01-0.004,0.015
	l-1.295,3.125c-0.004,0.011-0.009,0.023-0.014,0.035l-1.84,4.443c-0.001,0.003-0.003,0.006-0.004,0.009l-1.305,3.149
	c0,0.001-0.001,0.003-0.002,0.004c-0.001,0.001-0.001,0.003-0.002,0.005l-1.035,2.499c-0.001,0.004-0.004,0.006-0.005,0.01
	c-0.001,0.004-0.001,0.007-0.003,0.011l-2.109,5.09c-0.002,0.006-0.004,0.012-0.007,0.018L12.75,84.75l3.537,8.539
	c0.002,0.006,0.005,0.011,0.007,0.018l2.109,5.09c0.001,0.004,0.001,0.007,0.003,0.011c0.001,0.002,0.003,0.003,0.004,0.006
	l1.037,2.503c0.001,0.002,0.001,0.004,0.002,0.005c0,0.001,0.001,0.003,0.002,0.004l1.305,3.148
	c0.001,0.003,0.002,0.006,0.004,0.009l1.84,4.443c0.005,0.012,0.01,0.024,0.014,0.035l1.297,3.129
	c0.002,0.004,0.002,0.008,0.003,0.012c0,0.002,0.003,0.003,0.004,0.007l3.149,7.601c0.004,0.01,0.008,0.02,0.012,0.029l1.459,3.522
	c0.005,0.014,0.011,0.027,0.017,0.04L32.736,133c0.003,0.007,0.004,0.015,0.007,0.022c0.003,0.008,0.008,0.013,0.011,0.021
	l1.085,2.618l2.618,1.085c0.008,0.003,0.013,0.008,0.021,0.011c0.007,0.003,0.015,0.004,0.022,0.007l13.668,5.661
	c0.004,0.002,0.008,0.004,0.013,0.005l7.606,3.151c0.003,0.001,0.006,0.004,0.01,0.005c0.004,0.001,0.008,0.002,0.012,0.004
	l10.753,4.454c0.006,0.002,0.011,0.007,0.017,0.009c0.006,0.002,0.012,0.003,0.019,0.005l2.486,1.03
	c0.004,0.001,0.006,0.004,0.01,0.005c0.004,0.001,0.008,0.001,0.011,0.003l13.646,5.653l13.646-5.653
	c0.003-0.001,0.007-0.001,0.011-0.003c0.003-0.001,0.006-0.004,0.01-0.005l2.486-1.03c0.006-0.002,0.012-0.003,0.019-0.005
	c0.006-0.002,0.011-0.007,0.017-0.009l10.753-4.454c0.004-0.001,0.008-0.002,0.012-0.004c0.003-0.001,0.007-0.004,0.01-0.005
	L133,136.764c0.007-0.003,0.015-0.004,0.022-0.007c0.008-0.003,0.013-0.008,0.021-0.011l2.618-1.085l1.085-2.618
	c0.003-0.008,0.008-0.013,0.011-0.021c0.003-0.007,0.004-0.015,0.007-0.022l4.182-10.098c0.006-0.013,0.012-0.026,0.017-0.04
	l1.459-3.522c0.004-0.009,0.008-0.019,0.012-0.029l3.149-7.601c0.001-0.003,0.003-0.005,0.004-0.007
	c0.001-0.004,0.001-0.008,0.003-0.012l1.297-3.129c0.004-0.011,0.009-0.023,0.014-0.035l1.84-4.443
	c0.001-0.003,0.003-0.006,0.004-0.009l1.299-3.136c0.002-0.006,0.007-0.011,0.009-0.017c0.002-0.006,0.003-0.012,0.005-0.019
	l1.032-2.49C151.091,98.411,151.093,98.409,151.094,98.407z M141.163,115.216l-1.366-3.297l1.366-0.565l1.364,0.565L141.163,115.216
	z M134.747,130.705l-3.314-1.373l-2.888-6.974l2.889-6.975l3.313-1.372l3.458,8.346L134.747,130.705z M122.357,138.205l-8.346-3.458
	l1.372-3.313l6.975-2.889l6.974,2.888l1.373,3.314L122.357,138.205z M111.919,142.527l-0.565-1.364l0.565-1.366l3.297,1.366
	L111.919,142.527z M103.553,145.993l-3.416-1.415l-1.415-3.416l1.415-3.415l3.417-1.416l3.417,1.416l1.415,3.414l-1.415,3.416
	L103.553,145.993z M62.529,144.577l-1.415-3.416l1.415-3.414l3.417-1.416l3.417,1.416l1.415,3.415l-1.415,3.416l-3.416,1.415
	L62.529,144.577z M54.284,141.163l3.297-1.366l0.565,1.366l-0.565,1.364L54.284,141.163z M38.795,134.747l1.373-3.314l6.974-2.888
	l6.975,2.889l1.372,3.313l-8.346,3.458L38.795,134.747z M31.295,122.357l3.458-8.346l3.313,1.372l2.889,6.975l-2.888,6.974
	l-3.314,1.373L31.295,122.357z M26.973,111.919l1.364-0.565l1.366,0.565l-1.366,3.297L26.973,111.919z M28.337,54.284l1.366,3.297
	l-1.366,0.565l-1.364-0.565L28.337,54.284z M34.753,38.795l3.314,1.373l2.888,6.974l-2.889,6.975l-3.313,1.372l-3.458-8.346
	L34.753,38.795z M47.143,31.295l8.346,3.458l-1.372,3.313l-6.975,2.889l-6.974-2.888l-1.373-3.314L47.143,31.295z M57.581,26.973
	l0.565,1.364l-0.565,1.366l-3.297-1.366L57.581,26.973z M65.947,23.507l3.416,1.415l1.415,3.415l-1.415,3.416l-3.417,1.416
	l-3.417-1.416l-1.415-3.414l1.415-3.416L65.947,23.507z M106.971,24.923l1.415,3.416l-1.415,3.414l-3.417,1.416l-3.417-1.416
	l-1.415-3.416l1.415-3.415l3.416-1.415L106.971,24.923z M115.216,28.337l-3.297,1.366l-0.565-1.366l0.565-1.364L115.216,28.337z
	 M130.705,34.753l-1.373,3.314l-6.974,2.888l-6.975-2.889l-1.372-3.313l8.346-3.458L130.705,34.753z M138.205,47.143l-3.458,8.346
	l-3.313-1.372l-2.889-6.975l2.888-6.974l3.314-1.373L138.205,47.143z M142.527,57.581l-1.364,0.565l-1.366-0.565l1.366-3.297
	L142.527,57.581z M134.747,93.097l-3.314-1.372l-2.888-6.975l2.888-6.975l3.314-1.372l3.458,8.347L134.747,93.097z M93.824,129.333
	l-2.888-6.975l2.889-6.976l3.314-1.373l3.458,8.348l-3.458,8.349L93.824,129.333z M72.361,130.706l-3.458-8.349l3.458-8.348
	l3.314,1.373l2.889,6.976l-2.888,6.975L72.361,130.706z M75.676,40.167l2.888,6.975l-2.889,6.976l-3.314,1.373l-3.458-8.348
	l3.458-8.349L75.676,40.167z M97.139,38.794l3.458,8.349l-3.458,8.348l-3.314-1.373l-2.889-6.976l2.888-6.975L97.139,38.794z
	 M53.327,84.75l2.889-6.976l3.313-1.373l3.458,8.349l-3.458,8.349l-3.313-1.373L53.327,84.75z M116.173,84.75l-2.889,6.976
	l-3.313,1.373l-3.458-8.349l3.458-8.349l3.313,1.373L116.173,84.75z M68.905,84.75l3.458-8.349l3.313,1.373l2.889,6.976
	l-2.889,6.976l-3.313,1.373L68.905,84.75z M93.099,72.362l-1.373,3.313l-6.976,2.889l-6.976-2.889l-1.373-3.313l8.349-3.458
	L93.099,72.362z M90.241,79.259l-2.274,5.491l2.274,5.491l-5.491-2.274l-5.491,2.274l2.274-5.491l-2.274-5.491l5.491,2.274
	L90.241,79.259z M76.401,97.138l1.373-3.313l6.976-2.889l6.976,2.889l1.373,3.313l-8.349,3.458L76.401,97.138z M93.825,91.726
	l-2.889-6.976l2.889-6.976l3.313-1.373l3.458,8.349l-3.458,8.349L93.825,91.726z M104.92,74.31l-1.366,3.298l-1.366-3.298
	l1.366-0.565L104.92,74.31z M95.19,67.312l-3.298-1.366l3.298-1.366l0.565,1.366L95.19,67.312z M74.31,64.58l3.298,1.366
	l-3.298,1.366l-0.565-1.366L74.31,64.58z M67.312,74.31l-1.366,3.298L64.58,74.31l1.366-0.565L67.312,74.31z M64.58,95.19
	l1.366-3.298l1.366,3.298l-1.366,0.565L64.58,95.19z M74.31,102.188l3.298,1.366l-3.298,1.366l-0.565-1.366L74.31,102.188z
	 M95.19,104.92l-3.298-1.366l3.298-1.366l0.565,1.366L95.19,104.92z M102.188,95.19l1.366-3.298l1.366,3.298l-1.366,0.565
	L102.188,95.19z M111.918,67.312l-0.565-1.366l0.565-1.366l3.298,1.366L111.918,67.312z M108.385,65.946l-1.415,3.416l-3.416,1.415
	l-3.416-1.415l-1.415-3.416l1.415-3.416l3.416-1.415l3.416,1.415L108.385,65.946z M103.554,58.147l-1.366-0.565l1.366-3.298
	l1.366,3.298L103.554,58.147z M93.099,59.529l-8.349,3.458l-8.349-3.458l1.373-3.313l6.976-2.889l6.976,2.889L93.099,59.529z
	 M67.312,57.582l-1.366,0.565l-1.366-0.565l1.366-3.298L67.312,57.582z M65.946,61.115l3.416,1.415l1.415,3.416l-1.415,3.416
	l-3.416,1.415l-3.416-1.415l-1.415-3.416l1.415-3.416L65.946,61.115z M58.147,65.946l-0.565,1.366l-3.298-1.366l3.298-1.366
	L58.147,65.946z M57.582,102.188l0.565,1.366l-0.565,1.366l-3.298-1.366L57.582,102.188z M61.115,103.554l1.415-3.416l3.416-1.415
	l3.416,1.415l1.415,3.416l-1.415,3.416l-3.416,1.415l-3.416-1.415L61.115,103.554z M65.946,111.353l1.366,0.565l-1.366,3.298
	l-1.366-3.298L65.946,111.353z M76.401,109.971l8.349-3.458l8.349,3.458l-1.373,3.313l-6.976,2.889l-6.976-2.889L76.401,109.971z
	 M102.188,111.918l1.366-0.565l1.366,0.565l-1.366,3.298L102.188,111.918z M103.554,108.385l-3.416-1.415l-1.415-3.416l1.415-3.416
	l3.416-1.415l3.416,1.415l1.415,3.416l-1.415,3.416L103.554,108.385z M111.353,103.554l0.565-1.366l3.298,1.366l-3.298,1.366
	L111.353,103.554z M114.01,97.139l1.373-3.314l6.976-2.889l6.975,2.888l1.373,3.315l-8.349,3.458L114.01,97.139z M122.358,87.967
	l-5.492,2.274l2.275-5.491l-2.275-5.491l5.492,2.274l5.491-2.274l-2.274,5.491l2.274,5.491L122.358,87.967z M122.358,78.564
	l-6.976-2.889l-1.373-3.313l8.349-3.458l8.348,3.458l-1.373,3.315L122.358,78.564z M90.241,52.633l-5.491-2.275l-5.491,2.275
	l2.274-5.492l-2.274-5.491l5.491,2.274l5.491-2.274l-2.274,5.491L90.241,52.633z M38.794,72.361l8.348-3.458l8.349,3.458
	l-1.373,3.313l-6.976,2.889l-6.975-2.888L38.794,72.361z M47.142,81.533l5.492-2.274l-2.275,5.491l2.275,5.491l-5.492-2.274
	l-5.491,2.274l2.274-5.491l-2.274-5.491L47.142,81.533z M47.142,90.936l6.976,2.889l1.373,3.314l-8.348,3.458l-8.349-3.458
	l1.373-3.315L47.142,90.936z M79.259,116.867l5.491,2.275l5.491-2.275l-2.274,5.492l2.274,5.491l-5.491-2.274l-5.491,2.274
	l2.274-5.491L79.259,116.867z M93.098,34.753l-1.373,3.313l-6.975,2.889l-6.975-2.889l-1.373-3.313l8.348-3.458L93.098,34.753z
	 M34.753,76.402l3.313,1.373l2.889,6.975l-2.889,6.975l-3.313,1.373l-3.458-8.348L34.753,76.402z M76.403,134.747l1.372-3.314
	l6.975-2.888l6.975,2.888l1.372,3.314l-8.347,3.458L76.403,134.747z M142.528,74.311l-1.366,3.296l-1.365-3.296l1.366-0.566
	L142.528,74.311z M132.797,67.312l-3.297-1.366l3.299-1.366l0.564,1.364L132.797,67.312z M130.707,59.529l-8.349,3.458l-8.349-3.458
	l1.373-3.313l6.976-2.889l6.976,2.888L130.707,59.529z M122.358,50.358l-5.492,2.275l2.275-5.492l-2.274-5.491l5.491,2.274
	l5.49-2.273l-2.273,5.49l2.274,5.491L122.358,50.358z M116.173,47.142l-2.889,6.976l-3.313,1.373l-3.458-8.349l3.458-8.349
	l3.314,1.373L116.173,47.142z M104.921,36.702L103.555,40l-1.366-3.298l1.367-0.566L104.921,36.702z M95.189,29.703l-3.297-1.366
	l3.296-1.366l0.566,1.367L95.189,29.703z M74.311,26.972l3.296,1.366l-3.297,1.366l-0.565-1.365L74.311,26.972z M67.312,36.703
	L65.945,40l-1.367-3.298l1.366-0.565L67.312,36.703z M59.529,38.793l3.458,8.349l-3.458,8.349l-3.313-1.373l-2.889-6.976
	l2.888-6.976L59.529,38.793z M52.633,52.633l-5.492-2.275l-5.491,2.274l2.274-5.491l-2.273-5.49l5.49,2.273l5.491-2.274
	l-2.274,5.491L52.633,52.633z M47.142,53.327l6.976,2.889l1.373,3.313l-8.349,3.458l-8.349-3.458l1.373-3.314L47.142,53.327z
	 M36.701,64.58L40,65.946l-3.297,1.366l-0.566-1.367L36.701,64.58z M29.703,74.311l-1.366,3.297l-1.366-3.296l1.367-0.566
	L29.703,74.311z M26.972,95.189l1.366-3.296l1.366,3.297l-1.365,0.565L26.972,95.189z M36.703,102.188L40,103.555l-3.298,1.367
	l-0.565-1.366L36.703,102.188z M38.793,109.971l8.349-3.458l8.349,3.458l-1.373,3.313l-6.976,2.889l-6.976-2.888L38.793,109.971z
	 M47.142,119.142l5.492-2.275l-2.275,5.492l2.274,5.491l-5.491-2.274l-5.49,2.273l2.273-5.49l-2.274-5.491L47.142,119.142z
	 M53.327,122.358l2.889-6.976l3.313-1.373l3.458,8.349l-3.458,8.349l-3.314-1.373L53.327,122.358z M64.579,132.798l1.367-3.298
	l1.366,3.298l-1.367,0.566L64.579,132.798z M74.311,139.797l3.296,1.365l-3.296,1.366l-0.566-1.365L74.311,139.797z M95.189,142.528
	l-3.296-1.366l3.296-1.365l0.566,1.366L95.189,142.528z M102.188,132.797l1.366-3.298l1.367,3.298l-1.366,0.565L102.188,132.797z
	 M109.971,130.707l-3.458-8.349l3.458-8.349l3.313,1.373l2.889,6.976l-2.888,6.976L109.971,130.707z M116.867,116.867l5.492,2.275
	l5.491-2.274l-2.274,5.491l2.273,5.49l-5.49-2.273l-5.491,2.274l2.274-5.491L116.867,116.867z M122.358,116.173l-6.976-2.889
	l-1.373-3.313l8.349-3.458l8.349,3.458l-1.373,3.314L122.358,116.173z M132.798,104.921l-3.298-1.367l3.298-1.366l0.566,1.367
	L132.798,104.921z M139.797,95.189l1.365-3.296l1.366,3.296l-1.365,0.566L139.797,95.189z M144.578,69.362l-3.416,1.415
	l-3.415-1.415l-1.416-3.417l1.415-3.415l3.416-1.416l3.414,1.414l1.416,3.418L144.578,69.362z M24.923,62.529l3.414-1.414
	l3.416,1.416l1.415,3.415l-1.416,3.417l-3.416,1.415l-3.415-1.415l-1.415-3.416L24.923,62.529z M24.922,100.138l3.415-1.415
	l3.416,1.415l1.416,3.417l-1.416,3.417l-3.414,1.415l-3.416-1.415l-1.416-3.418L24.922,100.138z M144.577,106.971l-3.416,1.415
	l-3.414-1.415l-1.416-3.417l1.416-3.417l3.415-1.415l3.416,1.415l1.415,3.416L144.577,106.971z M150.893,91.724l-3.314,1.373
	l-3.457-8.347l3.457-8.347l3.314,1.373l2.889,6.974L150.893,91.724z M91.724,18.607l1.373,3.315l-8.347,3.457l-8.347-3.457
	l1.373-3.315l6.974-2.888L91.724,18.607z M18.607,77.776l3.315-1.373l3.457,8.347l-3.457,8.347l-3.315-1.373l-2.888-6.974
	L18.607,77.776z M77.776,150.893l-1.373-3.314l8.347-3.457l8.347,3.457l-1.373,3.314l-6.974,2.889L77.776,150.893z"/>
</svg>
