<?xml version="1.0" encoding="utf-8"?>
<!-- Generator: Adobe Illustrator 16.0.0, SVG Export Plug-In . SVG Version: 6.00 Build 0)  -->
<!DOCTYPE svg PUBLIC "-//W3C//DTD SVG 1.1//EN" "http://www.w3.org/Graphics/SVG/1.1/DTD/svg11.dtd">
<svg version="1.1" id="Layer_1" xmlns="http://www.w3.org/2000/svg" xmlns:xlink="http://www.w3.org/1999/xlink" x="0px" y="0px"
	 width="164.5px" height="164.5px" viewBox="0 0 164.5 164.5" enable-background="new 0 0 164.5 164.5" xml:space="preserve">
<path fill="#4D4D4F" stroke="#000000" stroke-width="0.25" stroke-miterlimit="10" d="M154.211,79.926
	c-0.067-2.128-0.228-4.245-0.479-6.312c0-0.002,0-0.004,0-0.005s0-0.002,0-0.003l-0.313-2.578l-0.042,0.017
	c-0.221-1.427-0.484-2.837-0.79-4.221l0.019-0.006l-0.439-1.805c-0.902-3.689-2.118-7.306-3.588-10.769l0.008-0.019l-0.337-0.776
	c-2.144-4.931-4.864-9.627-8.075-13.95c-0.004-0.004-0.008-0.008-0.011-0.012l-0.501-0.675l-0.018-0.002
	c-0.43-0.57-0.854-1.14-1.306-1.701c-0.362-0.452-0.747-0.893-1.124-1.339c-1.583-1.873-3.268-3.69-5.064-5.419
	c-0.006-0.005-0.012-0.011-0.019-0.017l0,0v-0.001c-0.001,0-0.002-0.001-0.002-0.001l-1.343-1.29l-0.021,0.021
	c-1.076-0.983-2.179-1.928-3.299-2.833l0.036-0.027l-2.062-1.554c-0.575-0.434-1.158-0.86-1.748-1.276
	c-4.118-2.915-8.535-5.384-13.151-7.35c-0.006-0.002-0.012-0.005-0.019-0.008l-2.371-1.01l-0.006,0.045
	c-1.323-0.512-2.687-0.991-4.078-1.433l0.007-0.029l-1.791-0.519c-3.589-1.041-7.335-1.792-11.14-2.264l-0.014-0.018L90.29,10.69
	c-5.06-0.58-10.67-0.586-15.726-0.037c-0.12,0.013-0.243,0.022-0.362,0.036c-0.007,0.001-0.014,0.002-0.021,0.003l-0.822,0.094
	l-0.013,0.018c-0.845,0.105-1.689,0.219-2.531,0.354c-1.899,0.305-3.789,0.68-5.654,1.135c-0.976,0.238-1.944,0.497-2.905,0.775
	c-0.017,0.005-0.034,0.009-0.051,0.014l-1.792,0.519l0.006,0.023c-1.348,0.428-2.709,0.906-4.075,1.432l-0.007-0.055l-2.383,1.018
	c-0.658,0.281-1.313,0.572-1.963,0.875c-0.879,0.408-1.748,0.84-2.611,1.284c-2.329,1.198-4.601,2.52-6.793,3.971
	c-1.203,0.796-2.383,1.629-3.539,2.498l-2.069,1.555l0.039,0.029c-1.124,0.909-2.22,1.85-3.281,2.82l-0.014-0.013l-1.352,1.292
	c-2.716,2.596-5.239,5.452-7.526,8.479l-0.021,0.002l-0.502,0.677c-2.391,3.218-4.518,6.665-6.349,10.284
	c-0.61,1.208-1.188,2.433-1.733,3.676c-0.001,0.002-0.001,0.005-0.002,0.007L15.9,54.226l0.01,0.025
	c-1.087,2.577-2.034,5.2-2.804,7.842c-0.284,0.972-0.545,1.946-0.784,2.921l-0.441,1.805l0.026,0.008
	c-0.303,1.394-0.565,2.81-0.787,4.239l-0.04-0.017l-0.313,2.572c-0.344,2.827-0.519,5.73-0.519,8.628
	c0,0.747,0.012,1.493,0.036,2.239c0.066,2.149,0.227,4.289,0.482,6.382c0.001,0.007,0.001,0.014,0.002,0.021l0.312,2.557l0.04-0.018
	c0.221,1.43,0.483,2.845,0.786,4.238l-0.026,0.008l0.441,1.806c0.887,3.627,2.101,7.238,3.588,10.765l-0.01,0.024l0.341,0.778
	c1.63,3.728,3.567,7.3,5.778,10.663c0.737,1.122,1.505,2.223,2.303,3.296l0.502,0.677l0.021,0.002
	c2.292,3.03,4.813,5.886,7.519,8.474c0.01,0.009,0.021,0.021,0.031,0.028l1.327,1.27l0.015-0.016c1.064,0.975,2.161,1.916,3.28,2.82
	l-0.04,0.029l2.07,1.557c0.578,0.435,1.162,0.858,1.751,1.275c4.129,2.914,8.546,5.383,13.158,7.354
	c0.012,0.004,0.023,0.008,0.035,0.014l2.346,1.003l0.007-0.056c1.362,0.524,2.723,1.004,4.075,1.434l-0.006,0.023l1.792,0.52
	c3.633,1.053,7.378,1.809,11.14,2.275l0.014,0.02l0.836,0.096c0.001,0,0.002,0,0.003,0c1.944,0.223,3.955,0.361,5.999,0.418
	c0.681,0.02,1.366,0.028,2.054,0.028c2.742,0,5.447-0.149,8.038-0.446l0.842-0.096l0.014-0.02c0.738-0.092,1.479-0.182,2.211-0.295
	c3.052-0.473,6.043-1.131,8.929-1.967l1.791-0.521l-0.007-0.03c1.396-0.443,2.757-0.922,4.078-1.434l0.006,0.045l2.379-1.014
	c5.283-2.25,10.301-5.154,14.904-8.625c0-0.002,0.002-0.004,0.004-0.006h0.002l2.062-1.554l-0.036-0.026
	c1.119-0.904,2.223-1.85,3.299-2.832l0.021,0.021l1.345-1.293c2.761-2.65,5.276-5.505,7.513-8.476l0.018-0.002l0.503-0.677
	c0.806-1.085,1.579-2.19,2.321-3.319c2.225-3.381,4.154-6.945,5.759-10.636c0-0.002,0.001-0.003,0.002-0.005
	c0-0.001,0.001-0.001,0.002-0.002l0.337-0.775l-0.008-0.021c1.074-2.532,2.018-5.142,2.793-7.801
	c0.285-0.979,0.55-1.966,0.791-2.956c0.002-0.006,0.003-0.012,0.004-0.016l0.439-1.803l-0.019-0.006
	c0.306-1.386,0.57-2.795,0.79-4.22l0.042,0.018l0.313-2.578c0.344-2.825,0.52-5.732,0.52-8.642
	C154.25,81.474,154.236,80.699,154.211,79.926z M31.456,36.888c0.397-0.445,0.8-0.883,1.208-1.316
	c0.215-0.229,0.43-0.457,0.648-0.682c0.134-0.138,0.273-0.271,0.408-0.408c1.23,1.253,2.402,2.549,3.521,3.877
	c-2.336-0.111-4.716-0.112-7.055-0.001c0.213-0.253,0.422-0.51,0.639-0.76C31.034,37.36,31.245,37.124,31.456,36.888z
	 M96.193,15.578c0.56,0.116,1.115,0.239,1.669,0.368c0.325,0.077,0.651,0.153,0.976,0.234c0.18,0.044,0.354,0.096,0.532,0.142
	c-0.468,1.694-1.011,3.373-1.613,5.032c-1.079-2.102-2.266-4.156-3.556-6.151c0.333,0.058,0.667,0.112,0.999,0.176
	C95.531,15.441,95.861,15.509,96.193,15.578z M150.308,84.739c-0.009,0.241-0.021,0.48-0.031,0.722
	c-0.03,0.619-0.067,1.238-0.112,1.854c-0.011,0.149-0.022,0.298-0.033,0.448c-3.312-1.581-6.483-3.433-9.495-5.514
	c3.012-2.082,6.184-3.936,9.495-5.515c0.011,0.148,0.022,0.295,0.033,0.443c0.045,0.619,0.083,1.239,0.112,1.862
	c0.011,0.239,0.022,0.478,0.031,0.717c0.03,0.83,0.051,1.66,0.051,2.492C150.357,83.08,150.338,83.91,150.308,84.739z
	 M137.321,79.814c-1.285-1.005-2.537-2.055-3.742-3.15c2.206-2.242,4.243-4.6,6.076-7.04c3.138-0.388,6.212-0.973,9.18-1.747
	c0.34,1.563,0.617,3.162,0.843,4.78C145.328,74.633,141.183,77.034,137.321,79.814z M147.744,100.94
	c-0.09,0.32-0.186,0.641-0.283,0.959c-0.166,0.556-0.34,1.107-0.521,1.658c-0.104,0.312-0.205,0.627-0.312,0.938
	c-0.104,0.306-0.223,0.605-0.33,0.911c-1.084-2.104-2.271-4.157-3.559-6.146c1.748,0.312,3.473,0.679,5.155,1.118
	C147.843,100.565,147.796,100.754,147.744,100.94z M143.599,111.789c-0.217,0.446-0.424,0.897-0.646,1.34
	c-0.14,0.272-0.291,0.536-0.433,0.806c-0.221,0.418-0.444,0.832-0.676,1.246c-0.205,0.371-0.402,0.75-0.617,1.118
	c-0.207,0.359-0.432,0.709-0.646,1.064c-0.25,0.415-0.506,0.829-0.765,1.239c-0.163,0.256-0.316,0.518-0.482,0.771
	c-0.27,0.412-0.555,0.812-0.832,1.219c-0.324,0.475-0.65,0.947-0.988,1.414c-4.351,0.436-9.133,0.416-13.488-0.02
	c-2.631-3.644-4.906-7.576-6.782-11.719c1.878-4.146,4.155-8.082,6.79-11.729c4.354-0.438,9.113-0.439,13.488,0
	c2.656,3.67,4.947,7.594,6.803,11.706C144.089,110.767,143.845,111.276,143.599,111.789z M133.044,127.597
	c-0.38,0.426-0.766,0.849-1.158,1.266c-0.234,0.251-0.471,0.501-0.711,0.748c-0.133,0.138-0.271,0.27-0.404,0.404
	c-1.222-1.236-2.396-2.535-3.526-3.877c1.166,0.057,2.345,0.09,3.539,0.09c1.188,0,2.36-0.033,3.521-0.088
	c-0.199,0.235-0.393,0.476-0.597,0.709C133.49,127.101,133.267,127.349,133.044,127.597z M89.019,150.007
	c-0.574,0.059-1.156,0.104-1.739,0.146c-0.464,0.033-0.921,0.076-1.388,0.101c-0.318,0.017-0.641,0.019-0.961,0.03
	c-0.514,0.021-1.026,0.033-1.543,0.042c-0.377,0.007-0.753,0.021-1.132,0.021c-0.42,0-0.835-0.017-1.254-0.022
	c-0.536-0.011-1.07-0.022-1.602-0.044c-0.263-0.012-0.528-0.012-0.791-0.025c-0.481-0.023-0.951-0.068-1.427-0.104
	c-0.577-0.043-1.151-0.086-1.717-0.145c-2.625-3.636-4.886-7.576-6.759-11.713c1.875-4.143,4.151-8.074,6.783-11.718
	c4.38-0.438,9.107-0.438,13.505,0c2.653,3.688,4.926,7.618,6.771,11.718C93.925,142.386,91.669,146.323,89.019,150.007z
	 M68.359,148.924c-0.583-0.12-1.163-0.249-1.741-0.385c-0.312-0.073-0.623-0.147-0.933-0.226c-0.19-0.047-0.378-0.103-0.568-0.15
	c0.464-1.682,1.004-3.355,1.606-5.018c1.085,2.111,2.272,4.162,3.553,6.144c-0.327-0.06-0.655-0.11-0.981-0.174
	C68.983,149.054,68.671,148.989,68.359,148.924z M32.634,128.892c-0.389-0.412-0.773-0.83-1.152-1.256
	c-0.225-0.25-0.449-0.502-0.669-0.756c-0.211-0.244-0.416-0.494-0.624-0.74c1.158,0.055,2.329,0.088,3.514,0.088
	c1.194,0,2.373-0.033,3.539-0.09c-1.12,1.327-2.292,2.623-3.521,3.875c-0.129-0.131-0.26-0.256-0.388-0.388
	C33.097,129.383,32.866,129.138,32.634,128.892z M25.165,119.394c-0.169-0.258-0.326-0.525-0.491-0.787
	c-0.256-0.404-0.507-0.812-0.755-1.224c-0.213-0.354-0.435-0.7-0.642-1.059c-0.213-0.367-0.411-0.745-0.617-1.118
	c-0.237-0.43-0.472-0.857-0.701-1.293c-0.134-0.255-0.277-0.506-0.408-0.762c-0.224-0.439-0.431-0.889-0.646-1.331
	c-0.252-0.522-0.502-1.046-0.742-1.574c1.877-4.144,4.168-8.065,6.8-11.706c4.367-0.438,9.125-0.438,13.487,0
	c2.656,3.688,4.932,7.623,6.781,11.729c-1.844,4.096-4.117,8.026-6.772,11.719c-4.35,0.437-9.134,0.455-13.489,0.02
	c-0.338-0.469-0.667-0.943-0.993-1.422C25.706,120.188,25.428,119.798,25.165,119.394z M17.534,103.511
	c-0.18-0.549-0.353-1.097-0.519-1.646c-0.095-0.316-0.189-0.632-0.28-0.948c-0.051-0.179-0.094-0.357-0.144-0.538
	c1.685-0.438,3.41-0.81,5.16-1.118c-1.282,1.981-2.47,4.033-3.557,6.146c-0.114-0.316-0.234-0.633-0.344-0.949
	C17.742,104.142,17.638,103.825,17.534,103.511z M16.735,63.577c0.09-0.316,0.185-0.632,0.28-0.949
	c0.165-0.549,0.338-1.096,0.518-1.644c0.104-0.314,0.207-0.63,0.315-0.943c0.11-0.318,0.23-0.635,0.345-0.952
	c1.087,2.113,2.274,4.164,3.556,6.145c-1.75-0.31-3.476-0.678-5.16-1.118C16.641,63.937,16.685,63.756,16.735,63.577z
	 M40.458,42.509c2.653,3.684,4.925,7.615,6.773,11.716c-1.845,4.096-4.116,8.026-6.771,11.714c-4.373,0.44-9.112,0.442-13.507,0
	c-2.626-3.634-4.915-7.552-6.79-11.692c0.236-0.521,0.482-1.036,0.73-1.549c0.218-0.451,0.429-0.907,0.656-1.354
	c0.142-0.277,0.296-0.548,0.441-0.823c0.216-0.41,0.437-0.816,0.661-1.221c0.209-0.377,0.41-0.76,0.626-1.133
	c0.21-0.363,0.436-0.717,0.652-1.076c0.241-0.399,0.485-0.795,0.734-1.188c0.169-0.268,0.33-0.541,0.502-0.806
	c0.267-0.409,0.549-0.806,0.825-1.208c0.322-0.471,0.646-0.94,0.979-1.402C31.339,42.05,36.087,42.071,40.458,42.509z
	 M39.311,29.386c0.311-0.253,0.625-0.502,0.94-0.75c3.88,2.793,8.02,5.189,12.346,7.146c-0.226,1.617-0.502,3.222-0.838,4.794
	c-3.013-0.78-6.086-1.366-9.174-1.749c-1.847-2.445-3.883-4.802-6.076-7.038C37.417,30.962,38.354,30.162,39.311,29.386z
	 M53.276,26.203c0,1.837-0.08,3.672-0.227,5.49c-3.295-1.566-6.477-3.392-9.495-5.481c0.103-0.071,0.202-0.147,0.305-0.218
	c0.476-0.326,0.962-0.635,1.446-0.948c0.475-0.307,0.946-0.619,1.428-0.914c0.487-0.298,0.983-0.58,1.477-0.866
	c0.493-0.286,0.983-0.575,1.483-0.848c0.492-0.268,0.992-0.52,1.49-0.775c0.516-0.265,1.029-0.534,1.551-0.785
	c0.107-0.052,0.216-0.097,0.323-0.148C53.203,22.526,53.276,24.365,53.276,26.203z M57.68,18.712
	c1.242-0.48,2.481-0.921,3.709-1.314c0.82,2.965,1.846,5.914,3.066,8.804c-1.22,2.89-2.246,5.839-3.066,8.806
	c-1.514-0.486-3.046-1.046-4.581-1.662c0.235-2.354,0.361-4.749,0.361-7.144c0-2.394-0.126-4.788-0.361-7.144
	C57.099,18.943,57.39,18.825,57.68,18.712z M66.632,15.955c0.568-0.134,1.138-0.26,1.71-0.379c0.322-0.067,0.644-0.134,0.968-0.197
	c0.321-0.062,0.645-0.114,0.968-0.171c-1.281,1.981-2.468,4.031-3.554,6.142c-0.602-1.662-1.143-3.336-1.606-5.016
	c0.188-0.049,0.374-0.103,0.562-0.15C65.997,16.104,66.313,16.029,66.632,15.955z M111.21,26.203c0-1.841,0.075-3.682,0.223-5.496
	c0.106,0.052,0.217,0.098,0.326,0.15c0.521,0.25,1.033,0.518,1.547,0.782c0.5,0.256,1.004,0.509,1.496,0.778
	c0.5,0.273,0.992,0.562,1.485,0.849c0.492,0.285,0.985,0.566,1.474,0.864c0.485,0.299,0.965,0.615,1.444,0.926
	c0.476,0.309,0.952,0.613,1.42,0.933c0.104,0.072,0.206,0.15,0.312,0.224c-3.012,2.088-6.194,3.916-9.5,5.482
	C111.292,29.882,111.21,28.045,111.21,26.203z M131.882,35.629c0.396,0.422,0.787,0.848,1.17,1.277
	c0.221,0.247,0.44,0.493,0.657,0.743c0.204,0.234,0.397,0.473,0.597,0.709c-2.343-0.111-4.726-0.11-7.063,0.001
	c1.13-1.342,2.307-2.64,3.528-3.878c0.137,0.138,0.276,0.272,0.41,0.411C131.417,35.136,131.65,35.382,131.882,35.629z
	 M141.234,48.206c0.207,0.354,0.395,0.717,0.594,1.075c0.229,0.413,0.455,0.828,0.674,1.246c0.15,0.284,0.311,0.562,0.455,0.849
	c0.219,0.432,0.422,0.872,0.633,1.308c0.248,0.519,0.496,1.04,0.732,1.564c-1.848,4.104-4.137,8.021-6.791,11.692
	c-4.385,0.442-9.125,0.44-13.508,0.001c-2.629-3.639-4.904-7.572-6.78-11.715c1.876-4.144,4.151-8.075,6.782-11.716
	c4.363-0.439,9.119-0.46,13.488-0.02c0.336,0.464,0.66,0.935,0.984,1.407c0.281,0.411,0.568,0.815,0.842,1.232
	c0.162,0.247,0.311,0.502,0.471,0.752c0.254,0.403,0.504,0.809,0.752,1.216C140.785,47.466,141.019,47.832,141.234,48.206z
	 M146.628,60.008c0.105,0.305,0.207,0.612,0.307,0.919c0.109,0.329,0.209,0.66,0.312,0.99c0.072,0.233,0.148,0.464,0.219,0.698
	c0.094,0.31,0.188,0.62,0.273,0.931c0.055,0.189,0.102,0.38,0.154,0.57c-1.685,0.439-3.406,0.808-5.156,1.116
	c1.289-1.989,2.477-4.04,3.559-6.144C146.406,59.396,146.523,59.699,146.628,60.008z M130.781,73.959
	c-1.223-1.236-2.396-2.526-3.524-3.866c1.163,0.056,2.339,0.089,3.526,0.089c1.186,0,2.357-0.033,3.521-0.089
	C133.189,71.417,132.015,72.708,130.781,73.959z M104.042,125.698c0.31-1.417,0.575-2.854,0.798-4.299
	c1.389,0.537,2.771,1.021,4.141,1.455c-0.309,1.416-0.573,2.852-0.797,4.3C106.839,126.634,105.457,126.147,104.042,125.698z
	 M64.192,124.642c-0.335-1.568-0.612-3.174-0.837-4.793c4.321-1.953,8.462-4.352,12.345-7.146c1.278,1.002,2.532,2.053,3.748,3.152
	c-2.172,2.203-4.21,4.561-6.082,7.039C70.275,123.276,67.203,123.863,64.192,124.642z M54.56,119.076
	c-0.841-3.024-1.87-5.976-3.074-8.808c1.204-2.832,2.232-5.78,3.074-8.806c1.53,0.489,3.062,1.05,4.585,1.661
	c-0.235,2.354-0.361,4.749-0.361,7.145c0,2.396,0.126,4.791,0.361,7.146C57.623,118.026,56.09,118.587,54.56,119.076z
	 M45.668,99.272c1.731,0.309,3.449,0.683,5.149,1.123c-0.472,1.699-1.008,3.369-1.603,5.012
	C48.138,103.312,46.955,101.263,45.668,99.272z M60.444,38.788c-0.308,1.415-0.574,2.853-0.797,4.304
	c-1.378-0.532-2.76-1.018-4.14-1.453c0.308-1.417,0.575-2.855,0.798-4.307C57.693,37.869,59.077,38.354,60.444,38.788z
	 M66.729,31.067c1.085,2.108,2.27,4.155,3.548,6.131c-1.73-0.308-3.448-0.681-5.147-1.122
	C65.594,34.398,66.128,32.726,66.729,31.067z M100.293,39.865c0.338,1.574,0.614,3.173,0.838,4.783
	c-4.325,1.955-8.466,4.352-12.345,7.144c-1.282-1.004-2.535-2.055-3.741-3.151c2.19-2.236,4.228-4.592,6.075-7.038
	C94.239,41.218,97.31,40.635,100.293,39.865z M105.343,117.414c0.234-2.356,0.36-4.751,0.36-7.146c0-2.396-0.126-4.791-0.36-7.143
	c1.534-0.616,3.064-1.176,4.579-1.662c0.819,2.967,1.847,5.914,3.066,8.805c-1.222,2.892-2.247,5.842-3.066,8.806
	C108.409,118.59,106.877,118.029,105.343,117.414z M82.248,113.144c-1.091-0.994-2.209-1.955-3.349-2.873
	c1.136-0.916,2.254-1.875,3.348-2.873c1.082,0.99,2.198,1.951,3.342,2.873C84.443,111.192,83.327,112.154,82.248,113.144z
	 M62.904,115.769c-0.147-1.819-0.228-3.658-0.228-5.498s0.081-3.679,0.228-5.498c3.295,1.565,6.474,3.406,9.496,5.498
	C69.375,112.362,66.198,114.203,62.904,115.769z M59.145,47.08c-0.235,2.354-0.361,4.749-0.361,7.145s0.126,4.792,0.361,7.146
	c-1.523,0.613-3.055,1.172-4.585,1.662c-0.841-3.025-1.871-5.976-3.074-8.807c1.204-2.833,2.232-5.782,3.074-8.807
	C56.089,45.908,57.622,46.467,59.145,47.08z M73.367,41.603c1.874,2.481,3.912,4.838,6.081,7.039
	c-1.217,1.102-2.471,2.152-3.747,3.15c-3.882-2.793-8.022-5.19-12.345-7.144c0.226-1.618,0.502-3.222,0.837-4.795
	C67.206,40.633,70.279,41.219,73.367,41.603z M85.588,54.225c-1.146,0.925-2.262,1.884-3.342,2.874
	c-1.091-0.995-2.209-1.955-3.348-2.874c1.137-0.917,2.255-1.876,3.349-2.873C83.329,52.343,84.446,53.303,85.588,54.225z
	 M101.583,48.727c0.146,1.819,0.229,3.659,0.229,5.498c0,1.84-0.082,3.678-0.229,5.5c-3.295-1.566-6.473-3.406-9.496-5.5
	C95.109,52.134,98.288,50.294,101.583,48.727z M82.246,101.979c-1.222-1.236-2.396-2.526-3.523-3.863
	c1.163,0.055,2.34,0.089,3.528,0.089c1.183,0,2.354-0.034,3.513-0.089C84.644,99.44,83.472,100.731,82.246,101.979z M72.399,54.225
	c-3.023,2.093-6.202,3.934-9.496,5.499c-0.147-1.82-0.228-3.658-0.228-5.499c0-1.839,0.081-3.677,0.228-5.498
	C66.2,50.294,69.377,52.134,72.399,54.225z M79.448,59.81c-2.173,2.204-4.211,4.562-6.081,7.039
	c-3.091,0.382-6.165,0.969-9.173,1.749c-0.335-1.571-0.612-3.173-0.837-4.793c4.321-1.954,8.462-4.351,12.345-7.146
	C76.978,57.658,78.231,58.709,79.448,59.81z M85.763,66.38c-2.336-0.11-4.71-0.11-7.042,0.001c1.127-1.336,2.301-2.627,3.525-3.866
	C83.474,63.765,84.646,65.056,85.763,66.38z M103.097,91.061c-0.828-2.996-1.856-5.949-3.076-8.813
	c1.221-2.869,2.25-5.821,3.076-8.814c1.574,0.506,3.104,1.064,4.584,1.663c-0.235,2.352-0.363,4.748-0.363,7.151
	c0,2.405,0.128,4.802,0.363,7.149C106.202,89.996,104.674,90.555,103.097,91.061z M97.75,77.388c-1.077-2.099-2.263-4.15-3.55-6.142
	c1.745,0.308,3.465,0.678,5.156,1.115C98.89,74.054,98.353,75.73,97.75,77.388z M75.491,93.963
	c-2.628-3.637-4.905-7.57-6.782-11.715c1.875-4.143,4.151-8.073,6.782-11.715c4.375-0.44,9.108-0.442,13.504-0.001
	c2.653,3.686,4.925,7.617,6.772,11.716c-1.847,4.097-4.119,8.027-6.772,11.714C84.617,94.404,79.865,94.402,75.491,93.963z
	 M65.13,72.374c1.698-0.441,3.416-0.815,5.148-1.123c-1.279,1.978-2.464,4.024-3.549,6.133
	C66.128,75.724,65.594,74.053,65.13,72.374z M59.647,65.358c0.223,1.453,0.49,2.891,0.797,4.304
	c-1.369,0.433-2.751,0.918-4.139,1.455c-0.223-1.452-0.489-2.89-0.798-4.305C56.888,66.375,58.27,65.891,59.647,65.358z
	 M56.809,75.103c1.535-0.616,3.066-1.175,4.58-1.661c0.82,2.965,1.846,5.914,3.066,8.805c-1.22,2.89-2.246,5.839-3.066,8.805
	c-1.511-0.485-3.043-1.045-4.581-1.662c0.235-2.354,0.361-4.748,0.361-7.143C57.168,79.853,57.042,77.457,56.809,75.103z
	 M66.729,87.112c1.085,2.108,2.27,4.154,3.548,6.13c-1.73-0.308-3.447-0.681-5.146-1.122C65.594,90.442,66.128,88.771,66.729,87.112
	z M97.75,87.108c0.603,1.656,1.14,3.333,1.606,5.025c-1.689,0.436-3.409,0.808-5.156,1.116C95.49,91.257,96.673,89.207,97.75,87.108
	z M104.839,99.14c-0.223-1.445-0.488-2.882-0.798-4.298c1.415-0.449,2.799-0.936,4.142-1.456c0.224,1.449,0.488,2.885,0.797,4.298
	C107.609,98.118,106.228,98.603,104.839,99.14z M104.042,69.653c0.31-1.417,0.575-2.852,0.798-4.297
	c1.391,0.537,2.772,1.022,4.141,1.454c-0.309,1.415-0.573,2.851-0.797,4.298C106.838,70.588,105.455,70.103,104.042,69.653z
	 M101.131,63.804c-0.224,1.607-0.5,3.206-0.838,4.78c-2.985-0.77-6.06-1.352-9.173-1.737c-1.848-2.444-3.883-4.8-6.076-7.036
	c1.204-1.096,2.458-2.146,3.742-3.153C92.669,59.453,96.808,61.85,101.131,63.804z M53.048,76.748
	c0.147,1.819,0.228,3.659,0.228,5.5c0,1.84-0.081,3.677-0.228,5.498c-3.297-1.567-6.475-3.407-9.496-5.498
	C46.575,80.155,49.753,78.314,53.048,76.748z M56.307,93.378c1.39,0.536,2.772,1.021,4.139,1.455
	c-0.308,1.415-0.574,2.852-0.797,4.303c-1.378-0.531-2.76-1.017-4.14-1.453C55.816,96.267,56.083,94.829,56.307,93.378z
	 M63.355,100.69c0.226-1.616,0.502-3.221,0.837-4.793c3.014,0.78,6.086,1.366,9.173,1.749c1.875,2.483,3.913,4.842,6.081,7.039
	c-1.219,1.104-2.473,2.154-3.747,3.151C71.819,105.043,67.679,102.646,63.355,100.69z M85.045,104.685
	c2.19-2.234,4.228-4.593,6.075-7.037c3.12-0.385,6.191-0.967,9.174-1.736c0.337,1.572,0.613,3.172,0.837,4.781
	c-4.325,1.955-8.466,4.353-12.345,7.146C87.504,106.832,86.251,105.782,85.045,104.685z M101.583,104.771
	c0.146,1.818,0.229,3.658,0.229,5.498s-0.082,3.679-0.229,5.5c-3.295-1.566-6.473-3.406-9.496-5.5
	C95.109,108.179,98.288,106.338,101.583,104.771z M111.437,87.748c-0.146-1.816-0.228-3.656-0.228-5.5s0.081-3.684,0.228-5.502
	c3.303,1.567,6.481,3.408,9.5,5.502C117.923,84.339,114.745,86.18,111.437,87.748z M115.265,59.089
	c1.084,2.107,2.27,4.154,3.547,6.132c-1.73-0.309-3.447-0.682-5.146-1.124C114.128,62.42,114.663,60.749,115.265,59.089z
	 M115.265,49.362c-0.603-1.66-1.137-3.332-1.601-5.01c1.698-0.441,3.415-0.814,5.146-1.122
	C117.534,45.207,116.349,47.253,115.265,49.362z M109.922,45.42c0.819,2.965,1.847,5.914,3.067,8.805
	c-1.223,2.892-2.248,5.841-3.067,8.806c-1.513-0.485-3.044-1.045-4.579-1.661c0.234-2.355,0.36-4.751,0.36-7.145
	c0-2.396-0.126-4.792-0.36-7.143C106.877,46.465,108.408,45.906,109.922,45.42z M82.246,45.936
	c-1.222-1.238-2.396-2.528-3.524-3.865c1.164,0.055,2.34,0.088,3.529,0.088c1.183,0,2.354-0.033,3.513-0.088
	C84.644,43.395,83.472,44.686,82.246,45.936z M49.214,49.363c-1.077-2.097-2.261-4.146-3.546-6.134
	c1.731,0.308,3.449,0.682,5.149,1.122C50.347,46.049,49.81,47.721,49.214,49.363z M49.214,59.088
	c0.595,1.641,1.131,3.313,1.603,5.011c-1.697,0.44-3.416,0.814-5.149,1.122C46.955,63.231,48.139,61.184,49.214,59.088z
	 M42.586,69.623c3.095-0.382,6.167-0.969,9.173-1.748c0.336,1.572,0.612,3.176,0.838,4.794c-4.324,1.955-8.465,4.352-12.345,7.145
	c-1.284-1.005-2.537-2.056-3.743-3.152C38.705,74.422,40.742,72.066,42.586,69.623z M40.251,84.681
	c3.881,2.792,8.02,5.189,12.346,7.145c-0.226,1.617-0.501,3.221-0.838,4.795c-3.013-0.78-6.086-1.367-9.174-1.75
	c-1.846-2.444-3.882-4.8-6.077-7.038C37.714,86.737,38.968,85.687,40.251,84.681z M82.246,118.56c1.227,1.25,2.4,2.541,3.518,3.865
	c-2.336-0.111-4.709-0.109-7.042,0C79.848,121.089,81.022,119.8,82.246,118.56z M91.12,122.892
	c-1.851-2.445-3.884-4.802-6.075-7.035c1.203-1.096,2.458-2.146,3.742-3.153c3.883,2.795,8.021,5.19,12.345,7.146
	c-0.224,1.608-0.5,3.207-0.838,4.78C97.316,123.86,94.244,123.278,91.12,122.892z M115.265,115.133
	c1.084,2.107,2.27,4.154,3.547,6.134c-1.729-0.309-3.444-0.684-5.146-1.123C114.128,118.465,114.663,116.793,115.265,115.133z
	 M115.265,105.407c-0.603-1.66-1.137-3.332-1.601-5.012c1.698-0.439,3.416-0.813,5.147-1.121
	C117.534,101.252,116.349,103.299,115.265,105.407z M121.898,94.872c-3.09,0.382-6.162,0.969-9.17,1.749
	c-0.338-1.573-0.612-3.176-0.838-4.793c4.334-1.956,8.476-4.353,12.346-7.146c1.271,0.997,2.525,2.046,3.744,3.151
	C125.81,90.033,123.773,92.391,121.898,94.872z M124.234,79.814c-3.873-2.796-8.016-5.194-12.344-7.146
	c0.226-1.615,0.5-3.218,0.838-4.792c3.01,0.78,6.082,1.367,9.172,1.749c1.879,2.486,3.916,4.844,6.08,7.039
	C126.765,77.764,125.511,78.814,124.234,79.814z M121.898,38.827c-3.09,0.382-6.162,0.969-9.17,1.749
	c-0.338-1.572-0.612-3.175-0.838-4.792c4.334-1.956,8.475-4.352,12.346-7.146c1.272,0.997,2.525,2.046,3.744,3.15
	C125.812,33.987,123.775,36.344,121.898,38.827z M108.183,37.342c0.224,1.449,0.488,2.885,0.797,4.298
	c-1.369,0.433-2.752,0.918-4.141,1.455c-0.223-1.446-0.488-2.881-0.798-4.298C105.458,38.347,106.84,37.86,108.183,37.342z
	 M99.357,36.088c-1.69,0.436-3.411,0.808-5.156,1.116c1.288-1.993,2.473-4.043,3.55-6.141C98.353,32.719,98.89,34.395,99.357,36.088
	z M88.996,37.917c-4.383,0.44-9.129,0.438-13.505,0c-2.629-3.638-4.906-7.571-6.783-11.717c1.874-4.139,4.134-8.076,6.759-11.711
	c0.557-0.056,1.124-0.1,1.693-0.142c0.48-0.035,0.954-0.079,1.441-0.104c0.312-0.016,0.628-0.018,0.943-0.03
	c0.465-0.018,0.932-0.03,1.401-0.039c0.433-0.008,0.865-0.025,1.3-0.025c0.407,0,0.812,0.017,1.217,0.024
	c0.479,0.008,0.956,0.021,1.435,0.039c0.33,0.013,0.666,0.015,0.994,0.032c0.469,0.024,0.926,0.066,1.387,0.1
	c0.586,0.043,1.168,0.088,1.742,0.146c2.647,3.683,4.903,7.617,6.748,11.711C93.921,30.298,91.65,34.23,88.996,37.917z
	 M33.702,70.183c1.187,0,2.363-0.033,3.526-0.089c-1.117,1.324-2.29,2.614-3.518,3.864c-1.22-1.236-2.395-2.526-3.522-3.864
	C31.349,70.149,32.52,70.183,33.702,70.183z M33.711,79.374c1.082,0.991,2.198,1.951,3.342,2.874
	c-1.145,0.924-2.261,1.883-3.342,2.873c-1.093-0.996-2.21-1.956-3.348-2.873C31.502,81.328,32.621,80.37,33.711,79.374z
	 M33.709,90.537c1.228,1.251,2.402,2.542,3.519,3.866c-2.332-0.11-4.709-0.11-7.042,0C31.312,93.066,32.488,91.776,33.709,90.537z
	 M49.214,115.132c0.595,1.643,1.131,3.314,1.602,5.014c-1.7,0.438-3.418,0.812-5.148,1.121
	C46.955,119.276,48.139,117.228,49.214,115.132z M53.049,132.801c0.146,1.817,0.227,3.653,0.227,5.491
	c0,1.837-0.075,3.676-0.221,5.492c-0.106-0.051-0.215-0.096-0.321-0.146c-0.524-0.252-1.041-0.522-1.559-0.789
	c-0.494-0.254-0.991-0.504-1.479-0.771c-0.506-0.276-1.003-0.569-1.502-0.858c-0.486-0.281-0.976-0.56-1.455-0.854
	c-0.492-0.301-0.974-0.619-1.458-0.934c-0.474-0.308-0.949-0.608-1.415-0.929c-0.105-0.071-0.207-0.149-0.311-0.222
	C46.577,136.192,49.759,134.366,53.049,132.801z M56.306,127.16c-0.223-1.45-0.49-2.888-0.798-4.304
	c1.381-0.438,2.763-0.922,4.14-1.453c0.224,1.453,0.49,2.89,0.797,4.303C59.073,126.142,57.689,126.627,56.306,127.16z
	 M70.277,127.297c-1.279,1.978-2.464,4.022-3.548,6.132c-0.601-1.66-1.136-3.332-1.599-5.011
	C66.829,127.978,68.545,127.604,70.277,127.297z M94.201,127.29c1.747,0.309,3.469,0.68,5.156,1.115
	c-0.469,1.691-1.004,3.367-1.606,5.025C96.673,131.333,95.489,129.282,94.201,127.29z M103.097,129.479
	c1.577,0.506,3.104,1.063,4.584,1.662c-0.235,2.352-0.363,4.748-0.363,7.149s0.128,4.799,0.363,7.149
	c-1.476,0.598-3.004,1.156-4.584,1.664c-0.826-2.996-1.856-5.947-3.076-8.813C101.241,135.424,102.269,132.472,103.097,129.479z
	 M111.21,138.292c0-1.842,0.081-3.678,0.227-5.493c3.301,1.565,6.483,3.394,9.498,5.484c-0.104,0.071-0.205,0.149-0.312,0.223
	c-0.466,0.319-0.942,0.623-1.415,0.933c-0.482,0.312-0.964,0.629-1.454,0.93c-0.481,0.297-0.976,0.576-1.467,0.859
	c-0.493,0.287-0.985,0.576-1.483,0.851c-0.504,0.272-1.018,0.53-1.526,0.792c-0.503,0.258-1.001,0.52-1.509,0.763
	c-0.112,0.056-0.227,0.103-0.336,0.154C111.286,141.974,111.21,140.134,111.21,138.292z M112.728,123.92
	c3.02,0.78,6.093,1.368,9.172,1.75c1.879,2.484,3.914,4.841,6.08,7.038c-1.219,1.104-2.474,2.154-3.744,3.15
	c-3.877-2.797-8.02-5.195-12.346-7.147C112.115,127.097,112.392,125.494,112.728,123.92z M127.254,94.403
	c1.13-1.338,2.304-2.629,3.526-3.868c1.232,1.251,2.406,2.543,3.523,3.868C131.968,94.292,129.587,94.292,127.254,94.403z
	 M130.78,85.121c-1.093-0.997-2.212-1.956-3.349-2.873c1.14-0.919,2.258-1.878,3.349-2.874c1.081,0.989,2.196,1.949,3.343,2.874
	C132.976,83.172,131.859,84.132,130.78,85.121z M107.681,33.353c-1.478,0.598-3.006,1.155-4.584,1.663
	c-0.828-2.996-1.856-5.949-3.076-8.813c1.22-2.868,2.25-5.819,3.076-8.812c1.575,0.505,3.104,1.063,4.584,1.662
	c-0.235,2.351-0.363,4.747-0.363,7.15C107.318,28.607,107.445,31.005,107.681,33.353z M24.832,69.625
	c1.876,2.484,3.915,4.842,6.081,7.038c-1.215,1.101-2.469,2.152-3.747,3.152c-3.88-2.794-8.021-5.191-12.345-7.146
	c0.226-1.617,0.501-3.219,0.837-4.79C18.625,68.653,21.699,69.238,24.832,69.625z M14.19,79.765
	c0.009-0.242,0.021-0.485,0.033-0.728c0.029-0.613,0.066-1.224,0.111-1.834c0.011-0.154,0.022-0.308,0.035-0.462
	c3.293,1.565,6.461,3.416,9.481,5.506c-3.019,2.088-6.187,3.939-9.481,5.505c-0.013-0.151-0.023-0.302-0.034-0.452
	c-0.046-0.614-0.083-1.229-0.112-1.847c-0.011-0.24-0.024-0.481-0.032-0.721c-0.03-0.828-0.05-1.656-0.05-2.485
	C14.141,81.42,14.161,80.592,14.19,79.765z M27.165,84.681c1.275,0.999,2.53,2.048,3.747,3.152c-2.17,2.202-4.208,4.559-6.081,7.038
	c-3.133,0.387-6.205,0.972-9.174,1.746c-0.335-1.57-0.612-3.173-0.837-4.791C19.146,89.87,23.287,87.473,27.165,84.681z
	 M42.585,125.669c3.084-0.382,6.158-0.969,9.174-1.748c0.336,1.571,0.612,3.174,0.838,4.792c-4.321,1.954-8.461,4.353-12.346,7.146
	c-1.28-1.002-2.532-2.051-3.742-3.151C38.701,130.474,40.736,128.115,42.585,125.669z M56.809,131.147
	c1.531-0.613,3.062-1.174,4.581-1.662c0.819,2.967,1.845,5.914,3.066,8.807c-1.22,2.891-2.246,5.84-3.066,8.807
	c-1.52-0.488-3.052-1.048-4.581-1.662c0.235-2.355,0.361-4.75,0.361-7.145C57.168,135.896,57.042,133.501,56.809,131.147z
	 M97.875,148.549c-0.561,0.132-1.124,0.255-1.689,0.372c-0.321,0.066-0.644,0.133-0.967,0.194c-0.337,0.065-0.678,0.118-1.018,0.179
	c1.291-1.996,2.479-4.05,3.556-6.152c0.604,1.66,1.146,3.34,1.613,5.034c-0.177,0.046-0.353,0.097-0.529,0.142
	C98.519,148.397,98.198,148.474,97.875,148.549z M139.654,94.871c-1.838-2.445-3.873-4.801-6.075-7.04
	c1.204-1.094,2.456-2.144,3.741-3.15c3.863,2.78,8.008,5.179,12.357,7.156c-0.226,1.615-0.503,3.214-0.844,4.782
	C145.863,95.843,142.787,95.257,139.654,94.871z"/>
</svg>
